<svg width="363" height="363" viewBox="0 0 363 363" fill="none" xmlns="http://www.w3.org/2000/svg">
<circle cx="181.5" cy="181.5" r="181.5" fill="#8B6886" fill-opacity="0.07"/>
<path d="M89.9297 258.164C89.1589 258.164 88.4375 258.068 87.7656 257.875C87.099 257.682 86.4505 257.362 85.8203 256.914V254.297H87.3438L87.5938 255.984C87.8646 256.188 88.2031 256.349 88.6094 256.469C89.0208 256.589 89.4609 256.648 89.9297 256.648C90.6172 256.648 91.1458 256.503 91.5156 256.211C91.8854 255.919 92.0703 255.529 92.0703 255.039C92.0703 254.586 91.8984 254.208 91.5547 253.906C91.2161 253.599 90.6146 253.328 89.75 253.094C88.474 252.75 87.513 252.307 86.8672 251.766C86.2214 251.224 85.8984 250.505 85.8984 249.609C85.8984 249 86.0625 248.461 86.3906 247.992C86.724 247.523 87.1849 247.154 87.7734 246.883C88.362 246.612 89.0417 246.474 89.8125 246.469C90.6562 246.458 91.401 246.568 92.0469 246.797C92.6979 247.026 93.2474 247.326 93.6953 247.695V250.141H92.2031L91.9219 248.547C91.7083 248.396 91.4297 248.268 91.0859 248.164C90.7474 248.055 90.3464 248 89.8828 248C89.2891 248 88.8047 248.143 88.4297 248.43C88.0547 248.711 87.8672 249.099 87.8672 249.594C87.8672 250.021 88.0417 250.372 88.3906 250.648C88.7448 250.924 89.3776 251.193 90.2891 251.453C91.5182 251.781 92.4505 252.234 93.0859 252.812C93.7266 253.385 94.0469 254.122 94.0469 255.023C94.0469 255.659 93.875 256.211 93.5312 256.68C93.1927 257.148 92.7135 257.513 92.0938 257.773C91.4792 258.034 90.7578 258.164 89.9297 258.164ZM99.1016 258.164C98.2995 258.164 97.6042 257.987 97.0156 257.633C96.4271 257.273 95.9688 256.779 95.6406 256.148C95.3177 255.518 95.1562 254.797 95.1562 253.984V253.656C95.1562 252.833 95.3151 252.102 95.6328 251.461C95.9557 250.815 96.3958 250.31 96.9531 249.945C97.5156 249.576 98.1589 249.391 98.8828 249.391C100.023 249.391 100.891 249.729 101.484 250.406C102.083 251.083 102.383 252.013 102.383 253.195V254.32H97.1953L97.1797 254.359C97.2109 255.026 97.4036 255.576 97.7578 256.008C98.112 256.435 98.6172 256.648 99.2734 256.648C99.7318 256.648 100.148 256.586 100.523 256.461C100.898 256.336 101.247 256.159 101.57 255.93L102.18 257.164C101.846 257.451 101.422 257.69 100.906 257.883C100.396 258.07 99.7943 258.164 99.1016 258.164ZM97.2266 252.938H100.5V252.734C100.5 252.182 100.37 251.734 100.109 251.391C99.8542 251.047 99.4531 250.875 98.9062 250.875C98.4271 250.875 98.0391 251.068 97.7422 251.453C97.4505 251.839 97.2708 252.32 97.2031 252.898L97.2266 252.938ZM106.336 258.164C105.477 258.164 104.807 257.943 104.328 257.5C103.849 257.057 103.609 256.448 103.609 255.672C103.609 254.875 103.932 254.229 104.578 253.734C105.229 253.24 106.161 252.992 107.375 252.992H108.664V252.281C108.664 251.833 108.529 251.477 108.258 251.211C107.992 250.945 107.604 250.812 107.094 250.812C106.802 250.812 106.544 250.849 106.32 250.922C106.096 250.99 105.896 251.089 105.719 251.219L105.547 252.359H104.094L104.078 250.273C104.49 249.997 104.951 249.781 105.461 249.625C105.977 249.469 106.547 249.391 107.172 249.391C108.245 249.391 109.089 249.643 109.703 250.148C110.323 250.654 110.633 251.372 110.633 252.305V256.031C110.633 256.146 110.633 256.258 110.633 256.367C110.638 256.471 110.646 256.578 110.656 256.688L111.516 256.797V258H108.945C108.893 257.818 108.844 257.641 108.797 257.469C108.755 257.297 108.724 257.125 108.703 256.953C108.422 257.307 108.081 257.599 107.68 257.828C107.279 258.052 106.831 258.164 106.336 258.164ZM106.781 256.641C107.182 256.641 107.552 256.549 107.891 256.367C108.234 256.18 108.492 255.945 108.664 255.664V254.25H107.352C106.763 254.25 106.318 254.388 106.016 254.664C105.719 254.935 105.57 255.253 105.57 255.617C105.57 256.299 105.974 256.641 106.781 256.641ZM112.594 258V256.797L113.758 256.562V250.992L112.523 250.758V249.547H115.57L115.672 250.609L115.688 250.781C116.141 249.854 116.797 249.391 117.656 249.391C117.979 249.391 118.268 249.432 118.523 249.516L118.297 251.336L117.195 251.273C116.836 251.253 116.539 251.323 116.305 251.484C116.07 251.646 115.878 251.87 115.727 252.156V256.562L116.898 256.797V258H112.594ZM123.078 258.164C122.286 258.164 121.599 257.984 121.016 257.625C120.438 257.26 119.99 256.76 119.672 256.125C119.359 255.484 119.203 254.747 119.203 253.914V253.641C119.203 252.823 119.359 252.094 119.672 251.453C119.984 250.812 120.43 250.31 121.008 249.945C121.591 249.576 122.279 249.391 123.07 249.391C123.794 249.391 124.424 249.508 124.961 249.742C125.497 249.971 125.938 250.258 126.281 250.602L126.289 252.859H124.789L124.5 251.367C124.354 251.216 124.169 251.096 123.945 251.008C123.721 250.914 123.477 250.867 123.211 250.867C122.56 250.867 122.057 251.125 121.703 251.641C121.349 252.151 121.172 252.818 121.172 253.641V253.914C121.172 254.81 121.349 255.49 121.703 255.953C122.062 256.417 122.523 256.648 123.086 256.648C123.534 256.648 123.901 256.526 124.188 256.281C124.474 256.036 124.661 255.698 124.75 255.266H126.453L126.477 255.312C126.383 256.141 126.062 256.823 125.516 257.359C124.974 257.896 124.161 258.164 123.078 258.164ZM127.422 258V256.797L128.594 256.562V247.258L127.352 247.023V245.812H130.555V250.641C130.836 250.245 131.177 249.938 131.578 249.719C131.984 249.5 132.443 249.391 132.953 249.391C133.823 249.391 134.508 249.669 135.008 250.227C135.508 250.779 135.758 251.633 135.758 252.789V256.562L136.922 256.797V258H132.68V256.797L133.789 256.562V252.773C133.789 252.128 133.659 251.661 133.398 251.375C133.138 251.089 132.755 250.945 132.25 250.945C131.891 250.945 131.565 251.026 131.273 251.188C130.982 251.344 130.742 251.565 130.555 251.852V256.562L131.664 256.797V258H127.422ZM144.539 258.164C143.68 258.164 143.01 257.943 142.531 257.5C142.052 257.057 141.812 256.448 141.812 255.672C141.812 254.875 142.135 254.229 142.781 253.734C143.432 253.24 144.365 252.992 145.578 252.992H146.867V252.281C146.867 251.833 146.732 251.477 146.461 251.211C146.195 250.945 145.807 250.812 145.297 250.812C145.005 250.812 144.747 250.849 144.523 250.922C144.299 250.99 144.099 251.089 143.922 251.219L143.75 252.359H142.297L142.281 250.273C142.693 249.997 143.154 249.781 143.664 249.625C144.18 249.469 144.75 249.391 145.375 249.391C146.448 249.391 147.292 249.643 147.906 250.148C148.526 250.654 148.836 251.372 148.836 252.305V256.031C148.836 256.146 148.836 256.258 148.836 256.367C148.841 256.471 148.849 256.578 148.859 256.688L149.719 256.797V258H147.148C147.096 257.818 147.047 257.641 147 257.469C146.958 257.297 146.927 257.125 146.906 256.953C146.625 257.307 146.284 257.599 145.883 257.828C145.482 258.052 145.034 258.164 144.539 258.164ZM144.984 256.641C145.385 256.641 145.755 256.549 146.094 256.367C146.438 256.18 146.695 255.945 146.867 255.664V254.25H145.555C144.966 254.25 144.521 254.388 144.219 254.664C143.922 254.935 143.773 255.253 143.773 255.617C143.773 256.299 144.177 256.641 144.984 256.641ZM154.609 258.164C153.818 258.164 153.13 257.984 152.547 257.625C151.969 257.26 151.521 256.76 151.203 256.125C150.891 255.484 150.734 254.747 150.734 253.914V253.641C150.734 252.823 150.891 252.094 151.203 251.453C151.516 250.812 151.961 250.31 152.539 249.945C153.122 249.576 153.81 249.391 154.602 249.391C155.326 249.391 155.956 249.508 156.492 249.742C157.029 249.971 157.469 250.258 157.812 250.602L157.82 252.859H156.32L156.031 251.367C155.885 251.216 155.701 251.096 155.477 251.008C155.253 250.914 155.008 250.867 154.742 250.867C154.091 250.867 153.589 251.125 153.234 251.641C152.88 252.151 152.703 252.818 152.703 253.641V253.914C152.703 254.81 152.88 255.49 153.234 255.953C153.594 256.417 154.055 256.648 154.617 256.648C155.065 256.648 155.432 256.526 155.719 256.281C156.005 256.036 156.193 255.698 156.281 255.266H157.984L158.008 255.312C157.914 256.141 157.594 256.823 157.047 257.359C156.505 257.896 155.693 258.164 154.609 258.164ZM163.156 258.164C162.365 258.164 161.677 257.984 161.094 257.625C160.516 257.26 160.068 256.76 159.75 256.125C159.438 255.484 159.281 254.747 159.281 253.914V253.641C159.281 252.823 159.438 252.094 159.75 251.453C160.062 250.812 160.508 250.31 161.086 249.945C161.669 249.576 162.357 249.391 163.148 249.391C163.872 249.391 164.503 249.508 165.039 249.742C165.576 249.971 166.016 250.258 166.359 250.602L166.367 252.859H164.867L164.578 251.367C164.432 251.216 164.247 251.096 164.023 251.008C163.799 250.914 163.555 250.867 163.289 250.867C162.638 250.867 162.135 251.125 161.781 251.641C161.427 252.151 161.25 252.818 161.25 253.641V253.914C161.25 254.81 161.427 255.49 161.781 255.953C162.141 256.417 162.602 256.648 163.164 256.648C163.612 256.648 163.979 256.526 164.266 256.281C164.552 256.036 164.74 255.698 164.828 255.266H166.531L166.555 255.312C166.461 256.141 166.141 256.823 165.594 257.359C165.052 257.896 164.24 258.164 163.156 258.164ZM171.672 258.164C170.859 258.164 170.161 257.982 169.578 257.617C168.995 257.247 168.547 256.74 168.234 256.094C167.922 255.448 167.766 254.703 167.766 253.859V253.695C167.766 252.857 167.922 252.115 168.234 251.469C168.547 250.823 168.995 250.315 169.578 249.945C170.161 249.576 170.854 249.391 171.656 249.391C172.469 249.391 173.167 249.576 173.75 249.945C174.333 250.31 174.781 250.818 175.094 251.469C175.406 252.115 175.562 252.857 175.562 253.695V253.859C175.562 254.708 175.406 255.456 175.094 256.102C174.781 256.747 174.333 257.253 173.75 257.617C173.172 257.982 172.479 258.164 171.672 258.164ZM171.672 256.648C172.323 256.648 172.807 256.391 173.125 255.875C173.443 255.354 173.602 254.682 173.602 253.859V253.695C173.602 252.888 173.44 252.224 173.117 251.703C172.799 251.177 172.312 250.914 171.656 250.914C171.005 250.914 170.521 251.177 170.203 251.703C169.891 252.224 169.734 252.888 169.734 253.695V253.859C169.734 254.682 169.891 255.354 170.203 255.875C170.521 256.391 171.01 256.648 171.672 256.648ZM176.602 258V256.797L177.781 256.562V250.992L176.539 250.758V249.547H179.586L179.68 250.656C179.951 250.255 180.294 249.945 180.711 249.727C181.128 249.503 181.609 249.391 182.156 249.391C182.708 249.391 183.18 249.516 183.57 249.766C183.966 250.01 184.266 250.383 184.469 250.883C184.729 250.419 185.07 250.055 185.492 249.789C185.919 249.523 186.419 249.391 186.992 249.391C187.836 249.391 188.503 249.68 188.992 250.258C189.482 250.836 189.727 251.711 189.727 252.883V256.562L190.906 256.797V258H186.648V256.797L187.758 256.562V252.867C187.758 252.159 187.638 251.661 187.398 251.375C187.159 251.089 186.807 250.945 186.344 250.945C185.911 250.945 185.555 251.083 185.273 251.359C184.997 251.63 184.818 251.982 184.734 252.414V256.562L185.805 256.797V258H181.703V256.797L182.773 256.562V252.867C182.773 252.185 182.651 251.695 182.406 251.398C182.161 251.096 181.807 250.945 181.344 250.945C180.958 250.945 180.633 251.023 180.367 251.18C180.107 251.336 179.898 251.557 179.742 251.844V256.562L180.852 256.797V258H176.602ZM195.672 258.164C194.859 258.164 194.161 257.982 193.578 257.617C192.995 257.247 192.547 256.74 192.234 256.094C191.922 255.448 191.766 254.703 191.766 253.859V253.695C191.766 252.857 191.922 252.115 192.234 251.469C192.547 250.823 192.995 250.315 193.578 249.945C194.161 249.576 194.854 249.391 195.656 249.391C196.469 249.391 197.167 249.576 197.75 249.945C198.333 250.31 198.781 250.818 199.094 251.469C199.406 252.115 199.562 252.857 199.562 253.695V253.859C199.562 254.708 199.406 255.456 199.094 256.102C198.781 256.747 198.333 257.253 197.75 257.617C197.172 257.982 196.479 258.164 195.672 258.164ZM195.672 256.648C196.323 256.648 196.807 256.391 197.125 255.875C197.443 255.354 197.602 254.682 197.602 253.859V253.695C197.602 252.888 197.44 252.224 197.117 251.703C196.799 251.177 196.312 250.914 195.656 250.914C195.005 250.914 194.521 251.177 194.203 251.703C193.891 252.224 193.734 252.888 193.734 253.695V253.859C193.734 254.682 193.891 255.354 194.203 255.875C194.521 256.391 195.01 256.648 195.672 256.648ZM204.109 258.164C203.427 258.164 202.844 257.992 202.359 257.648C201.875 257.305 201.503 256.826 201.242 256.211C200.987 255.591 200.859 254.87 200.859 254.047V253.883C200.859 252.987 200.987 252.203 201.242 251.531C201.503 250.854 201.875 250.328 202.359 249.953C202.844 249.578 203.424 249.391 204.102 249.391C204.586 249.391 205.008 249.484 205.367 249.672C205.732 249.854 206.044 250.117 206.305 250.461V247.258L205.062 247.023V245.812H208.273V256.562L209.445 256.797V258H206.57L206.414 256.977C205.867 257.768 205.099 258.164 204.109 258.164ZM204.664 256.609C205.039 256.609 205.362 256.526 205.633 256.359C205.904 256.193 206.128 255.956 206.305 255.648V251.922C206.133 251.615 205.909 251.375 205.633 251.203C205.362 251.031 205.044 250.945 204.68 250.945C204.039 250.945 203.57 251.216 203.273 251.758C202.977 252.299 202.828 253.008 202.828 253.883V254.047C202.828 254.828 202.971 255.451 203.258 255.914C203.549 256.378 204.018 256.609 204.664 256.609ZM213.102 258.164C212.242 258.164 211.573 257.943 211.094 257.5C210.615 257.057 210.375 256.448 210.375 255.672C210.375 254.875 210.698 254.229 211.344 253.734C211.995 253.24 212.927 252.992 214.141 252.992H215.43V252.281C215.43 251.833 215.294 251.477 215.023 251.211C214.758 250.945 214.37 250.812 213.859 250.812C213.568 250.812 213.31 250.849 213.086 250.922C212.862 250.99 212.661 251.089 212.484 251.219L212.312 252.359H210.859L210.844 250.273C211.255 249.997 211.716 249.781 212.227 249.625C212.742 249.469 213.312 249.391 213.938 249.391C215.01 249.391 215.854 249.643 216.469 250.148C217.089 250.654 217.398 251.372 217.398 252.305V256.031C217.398 256.146 217.398 256.258 217.398 256.367C217.404 256.471 217.411 256.578 217.422 256.688L218.281 256.797V258H215.711C215.659 257.818 215.609 257.641 215.562 257.469C215.521 257.297 215.49 257.125 215.469 256.953C215.188 257.307 214.846 257.599 214.445 257.828C214.044 258.052 213.596 258.164 213.102 258.164ZM213.547 256.641C213.948 256.641 214.318 256.549 214.656 256.367C215 256.18 215.258 255.945 215.43 255.664V254.25H214.117C213.529 254.25 213.083 254.388 212.781 254.664C212.484 254.935 212.336 255.253 212.336 255.617C212.336 256.299 212.74 256.641 213.547 256.641ZM222.273 258.148C221.555 258.148 220.995 257.948 220.594 257.547C220.193 257.141 219.992 256.495 219.992 255.609V250.953H218.758V249.547H219.992V247.492H221.953V249.547H223.625V250.953H221.953V255.609C221.953 255.969 222.026 256.229 222.172 256.391C222.323 256.552 222.526 256.633 222.781 256.633C222.927 256.633 223.089 256.622 223.266 256.602C223.448 256.576 223.596 256.549 223.711 256.523L223.906 257.906C223.682 257.974 223.422 258.031 223.125 258.078C222.828 258.125 222.544 258.148 222.273 258.148ZM224.875 258V256.797L226.047 256.562V250.992L224.805 250.758V249.547H228.016V256.562L229.18 256.797V258H224.875ZM225.969 247.633V245.812H228.016V247.633H225.969ZM234.016 258.164C233.203 258.164 232.505 257.982 231.922 257.617C231.339 257.247 230.891 256.74 230.578 256.094C230.266 255.448 230.109 254.703 230.109 253.859V253.695C230.109 252.857 230.266 252.115 230.578 251.469C230.891 250.823 231.339 250.315 231.922 249.945C232.505 249.576 233.198 249.391 234 249.391C234.812 249.391 235.51 249.576 236.094 249.945C236.677 250.31 237.125 250.818 237.438 251.469C237.75 252.115 237.906 252.857 237.906 253.695V253.859C237.906 254.708 237.75 255.456 237.438 256.102C237.125 256.747 236.677 257.253 236.094 257.617C235.516 257.982 234.823 258.164 234.016 258.164ZM234.016 256.648C234.667 256.648 235.151 256.391 235.469 255.875C235.786 255.354 235.945 254.682 235.945 253.859V253.695C235.945 252.888 235.784 252.224 235.461 251.703C235.143 251.177 234.656 250.914 234 250.914C233.349 250.914 232.865 251.177 232.547 251.703C232.234 252.224 232.078 252.888 232.078 253.695V253.859C232.078 254.682 232.234 255.354 232.547 255.875C232.865 256.391 233.354 256.648 234.016 256.648ZM238.945 258V256.797L240.117 256.562V250.992L238.883 250.758V249.547H241.93L242.031 250.773C242.312 250.336 242.661 249.997 243.078 249.758C243.5 249.513 243.977 249.391 244.508 249.391C245.378 249.391 246.055 249.659 246.539 250.195C247.023 250.732 247.266 251.565 247.266 252.695V256.562L248.438 256.797V258H244.195V256.797L245.297 256.562V252.711C245.297 252.07 245.169 251.617 244.914 251.352C244.659 251.081 244.279 250.945 243.773 250.945C243.398 250.945 243.068 251.031 242.781 251.203C242.495 251.37 242.263 251.604 242.086 251.906V256.562L243.156 256.797V258H238.945ZM252.867 258.164C252.263 258.164 251.698 258.107 251.172 257.992C250.651 257.872 250.128 257.698 249.602 257.469L249.578 255.234H250.992L251.289 256.453C251.518 256.557 251.75 256.635 251.984 256.688C252.219 256.74 252.482 256.766 252.773 256.766C253.336 256.766 253.732 256.667 253.961 256.469C254.195 256.271 254.312 256.026 254.312 255.734C254.312 255.458 254.19 255.219 253.945 255.016C253.706 254.812 253.245 254.638 252.562 254.492C251.547 254.273 250.802 253.956 250.328 253.539C249.854 253.117 249.617 252.57 249.617 251.898C249.617 251.44 249.74 251.021 249.984 250.641C250.234 250.26 250.599 249.958 251.078 249.734C251.562 249.51 252.156 249.398 252.859 249.398C253.5 249.398 254.068 249.466 254.562 249.602C255.062 249.732 255.487 249.906 255.836 250.125L255.891 252.273H254.484L254.242 251.156C253.904 250.917 253.471 250.797 252.945 250.797C252.513 250.797 252.172 250.893 251.922 251.086C251.672 251.273 251.547 251.51 251.547 251.797C251.547 252.047 251.646 252.263 251.844 252.445C252.042 252.628 252.479 252.794 253.156 252.945C254.255 253.201 255.042 253.534 255.516 253.945C255.99 254.357 256.227 254.901 256.227 255.578C256.227 256.333 255.951 256.953 255.398 257.438C254.846 257.922 254.003 258.164 252.867 258.164Z" fill="#222222"/>
<rect x="30" y="130" width="246" height="35" fill="#DFDFDF"/>
<rect x="284" y="130" width="63" height="35" fill="#EBAFA6"/>
<path d="M298.143 153.144C297.536 153.144 296.953 153.055 296.393 152.877C295.832 152.699 295.297 152.426 294.786 152.057V149.931H295.832L296.058 151.496C296.354 151.678 296.675 151.82 297.021 151.92C297.368 152.02 297.742 152.07 298.143 152.07C298.822 152.07 299.348 151.92 299.722 151.619C300.095 151.314 300.282 150.915 300.282 150.423C300.282 149.967 300.114 149.589 299.776 149.288C299.439 148.987 298.838 148.739 297.972 148.543C296.942 148.306 296.156 147.946 295.613 147.463C295.071 146.975 294.8 146.362 294.8 145.624C294.8 145.104 294.937 144.64 295.21 144.229C295.488 143.819 295.873 143.496 296.365 143.259C296.857 143.022 297.432 142.903 298.088 142.903C298.785 142.903 299.4 143.01 299.934 143.225C300.471 143.434 300.913 143.689 301.26 143.99V145.979H300.214L299.988 144.558C299.783 144.394 299.528 144.257 299.223 144.147C298.917 144.038 298.539 143.983 298.088 143.983C297.509 143.983 297.04 144.132 296.68 144.428C296.324 144.724 296.146 145.116 296.146 145.604C296.146 146.032 296.317 146.383 296.659 146.656C297.001 146.925 297.593 147.164 298.437 147.374C299.485 147.634 300.278 148.019 300.815 148.529C301.358 149.035 301.629 149.662 301.629 150.409C301.629 150.942 301.485 151.416 301.198 151.831C300.911 152.241 300.506 152.562 299.981 152.795C299.462 153.027 298.849 153.144 298.143 153.144ZM306.12 153.144C305.437 153.144 304.842 152.989 304.336 152.679C303.83 152.364 303.438 151.929 303.16 151.373C302.887 150.817 302.75 150.174 302.75 149.445V149.145C302.75 148.443 302.894 147.816 303.181 147.265C303.472 146.709 303.857 146.271 304.336 145.952C304.819 145.629 305.345 145.467 305.915 145.467C306.909 145.467 307.66 145.768 308.171 146.369C308.686 146.971 308.943 147.773 308.943 148.775V149.616H304.145L304.124 149.65C304.138 150.361 304.318 150.947 304.664 151.407C305.01 151.863 305.496 152.091 306.12 152.091C306.576 152.091 306.975 152.027 307.316 151.899C307.663 151.767 307.961 151.587 308.212 151.359L308.738 152.234C308.474 152.49 308.123 152.706 307.686 152.884C307.253 153.057 306.731 153.144 306.12 153.144ZM304.186 148.563H307.597V148.386C307.597 147.857 307.455 147.415 307.173 147.06C306.89 146.704 306.471 146.526 305.915 146.526C305.464 146.526 305.079 146.718 304.76 147.101C304.441 147.479 304.245 147.955 304.172 148.529L304.186 148.563ZM312.498 153.144C311.728 153.144 311.142 152.957 310.741 152.583C310.34 152.205 310.14 151.674 310.14 150.99C310.14 150.288 310.427 149.726 311.001 149.302C311.575 148.873 312.373 148.659 313.394 148.659H314.713V147.935C314.713 147.488 314.576 147.142 314.303 146.896C314.034 146.649 313.653 146.526 313.161 146.526C312.851 146.526 312.582 146.565 312.354 146.643C312.127 146.715 311.919 146.818 311.732 146.95L311.589 147.982H310.55V146.287C311.22 145.74 312.097 145.467 313.182 145.467C314.079 145.467 314.784 145.681 315.294 146.109C315.804 146.538 316.06 147.151 316.06 147.948V151.51C316.06 151.605 316.06 151.699 316.06 151.79C316.064 151.881 316.071 151.972 316.08 152.063L316.798 152.139V153H314.863C314.786 152.626 314.738 152.287 314.72 151.981C314.46 152.314 314.134 152.592 313.742 152.815C313.355 153.034 312.94 153.144 312.498 153.144ZM312.696 152.016C313.143 152.016 313.551 151.909 313.92 151.694C314.289 151.48 314.553 151.223 314.713 150.922V149.582H313.346C312.726 149.582 312.261 149.73 311.951 150.026C311.641 150.323 311.486 150.653 311.486 151.018C311.486 151.683 311.89 152.016 312.696 152.016ZM317.83 153V152.139L318.944 151.947V146.663L317.83 146.472V145.604H320.147L320.264 146.547L320.277 146.677C320.487 146.299 320.744 146.002 321.05 145.788C321.36 145.574 321.713 145.467 322.109 145.467C322.251 145.467 322.394 145.48 322.54 145.508C322.69 145.531 322.798 145.553 322.861 145.576L322.684 146.827L321.747 146.772C321.392 146.75 321.093 146.832 320.852 147.019C320.61 147.201 320.423 147.447 320.291 147.757V151.947L321.405 152.139V153H317.83ZM326.888 153.144C326.218 153.144 325.634 152.989 325.138 152.679C324.641 152.364 324.256 151.929 323.982 151.373C323.709 150.817 323.572 150.174 323.572 149.445V149.158C323.572 148.456 323.704 147.827 323.969 147.271C324.233 146.715 324.614 146.276 325.11 145.952C325.607 145.629 326.2 145.467 326.888 145.467C327.485 145.467 328.007 145.565 328.453 145.761C328.904 145.957 329.283 146.226 329.588 146.567L329.622 148.345H328.569L328.337 147.053C328.182 146.893 327.988 146.766 327.756 146.67C327.523 146.574 327.25 146.526 326.936 146.526C326.535 146.526 326.181 146.645 325.876 146.882C325.575 147.119 325.34 147.436 325.172 147.832C325.003 148.229 324.919 148.671 324.919 149.158V149.445C324.919 150.257 325.094 150.901 325.445 151.38C325.796 151.854 326.275 152.091 326.881 152.091C327.337 152.091 327.715 151.965 328.016 151.715C328.316 151.464 328.501 151.12 328.569 150.683H329.779L329.793 150.724C329.77 151.147 329.645 151.544 329.417 151.913C329.189 152.282 328.863 152.581 328.439 152.809C328.02 153.032 327.503 153.144 326.888 153.144ZM330.675 153V152.139L331.789 151.947V143.396L330.675 143.204V142.336H333.136V146.588C333.391 146.232 333.703 145.957 334.072 145.761C334.441 145.565 334.852 145.467 335.303 145.467C336.096 145.467 336.711 145.704 337.148 146.178C337.586 146.652 337.805 147.381 337.805 148.365V151.947L338.919 152.139V153H335.344V152.139L336.458 151.947V148.352C336.458 147.158 335.936 146.561 334.893 146.561C334.523 146.561 334.186 146.649 333.881 146.827C333.58 147 333.332 147.237 333.136 147.538V151.947L334.25 152.139V153H330.675Z" fill="white"/>
<path d="M40.4141 157V155.797L41.2422 155.68L45.0078 145.625H46.9219L50.6406 155.68L51.4688 155.797V157H47.8516V155.797L48.6641 155.648L48.0625 153.859H43.8281L43.2109 155.648L44.0312 155.797V157H40.4141ZM44.3438 152.344H47.5547L46.0781 148.141L45.9766 147.836H45.9297L45.8203 148.156L44.3438 152.344ZM52.3125 157V155.797L53.4922 155.562V146.258L52.2422 146.023V144.812H55.4609V155.562L56.6328 155.797V157H52.3125ZM60.8281 157L58.0859 149.891L57.1875 149.758V148.547H61.0547V149.758L60.0781 149.914L61.6016 154.156L61.8047 154.828H61.8516L62.0859 154.156L63.625 149.914L62.5547 149.758V148.547H66.4141V149.758L65.4922 149.898L62.7422 157H60.8281ZM70.9297 157.164C70.1276 157.164 69.4323 156.987 68.8438 156.633C68.2552 156.273 67.7969 155.779 67.4688 155.148C67.1458 154.518 66.9844 153.797 66.9844 152.984V152.656C66.9844 151.833 67.1432 151.102 67.4609 150.461C67.7839 149.815 68.224 149.31 68.7812 148.945C69.3438 148.576 69.987 148.391 70.7109 148.391C71.8516 148.391 72.7188 148.729 73.3125 149.406C73.9115 150.083 74.2109 151.013 74.2109 152.195V153.32H69.0234L69.0078 153.359C69.0391 154.026 69.2318 154.576 69.5859 155.008C69.9401 155.435 70.4453 155.648 71.1016 155.648C71.5599 155.648 71.9766 155.586 72.3516 155.461C72.7266 155.336 73.0755 155.159 73.3984 154.93L74.0078 156.164C73.6745 156.451 73.25 156.69 72.7344 156.883C72.224 157.07 71.6224 157.164 70.9297 157.164ZM69.0547 151.938H72.3281V151.734C72.3281 151.182 72.1979 150.734 71.9375 150.391C71.6823 150.047 71.2812 149.875 70.7344 149.875C70.2552 149.875 69.8672 150.068 69.5703 150.453C69.2786 150.839 69.099 151.32 69.0312 151.898L69.0547 151.938ZM75.4219 157V155.797L76.5859 155.562V149.992L75.3516 149.758V148.547H78.3984L78.5 149.609L78.5156 149.781C78.9688 148.854 79.625 148.391 80.4844 148.391C80.8073 148.391 81.0964 148.432 81.3516 148.516L81.125 150.336L80.0234 150.273C79.6641 150.253 79.3672 150.323 79.1328 150.484C78.8984 150.646 78.7057 150.87 78.5547 151.156V155.562L79.7266 155.797V157H75.4219ZM85.9531 157V155.797L87.125 155.562V146.258L85.8828 146.023V144.812H89.0859V149.641C89.3672 149.245 89.7083 148.938 90.1094 148.719C90.5156 148.5 90.974 148.391 91.4844 148.391C92.3542 148.391 93.0391 148.669 93.5391 149.227C94.0391 149.779 94.2891 150.633 94.2891 151.789V155.562L95.4531 155.797V157H91.2109V155.797L92.3203 155.562V151.773C92.3203 151.128 92.1901 150.661 91.9297 150.375C91.6693 150.089 91.2865 149.945 90.7812 149.945C90.4219 149.945 90.0964 150.026 89.8047 150.188C89.513 150.344 89.2734 150.565 89.0859 150.852V155.562L90.1953 155.797V157H85.9531ZM100.172 157.164C99.3594 157.164 98.6615 156.982 98.0781 156.617C97.4948 156.247 97.0469 155.74 96.7344 155.094C96.4219 154.448 96.2656 153.703 96.2656 152.859V152.695C96.2656 151.857 96.4219 151.115 96.7344 150.469C97.0469 149.823 97.4948 149.315 98.0781 148.945C98.6615 148.576 99.3542 148.391 100.156 148.391C100.969 148.391 101.667 148.576 102.25 148.945C102.833 149.31 103.281 149.818 103.594 150.469C103.906 151.115 104.062 151.857 104.062 152.695V152.859C104.062 153.708 103.906 154.456 103.594 155.102C103.281 155.747 102.833 156.253 102.25 156.617C101.672 156.982 100.979 157.164 100.172 157.164ZM100.172 155.648C100.823 155.648 101.307 155.391 101.625 154.875C101.943 154.354 102.102 153.682 102.102 152.859V152.695C102.102 151.888 101.94 151.224 101.617 150.703C101.299 150.177 100.812 149.914 100.156 149.914C99.5052 149.914 99.0208 150.177 98.7031 150.703C98.3906 151.224 98.2344 151.888 98.2344 152.695V152.859C98.2344 153.682 98.3906 154.354 98.7031 154.875C99.0208 155.391 99.5104 155.648 100.172 155.648ZM108.289 157.148C107.57 157.148 107.01 156.948 106.609 156.547C106.208 156.141 106.008 155.495 106.008 154.609V149.953H104.773V148.547H106.008V146.492H107.969V148.547H109.641V149.953H107.969V154.609C107.969 154.969 108.042 155.229 108.188 155.391C108.339 155.552 108.542 155.633 108.797 155.633C108.943 155.633 109.104 155.622 109.281 155.602C109.464 155.576 109.612 155.549 109.727 155.523L109.922 156.906C109.698 156.974 109.438 157.031 109.141 157.078C108.844 157.125 108.56 157.148 108.289 157.148ZM114.617 157.164C113.815 157.164 113.12 156.987 112.531 156.633C111.943 156.273 111.484 155.779 111.156 155.148C110.833 154.518 110.672 153.797 110.672 152.984V152.656C110.672 151.833 110.831 151.102 111.148 150.461C111.471 149.815 111.911 149.31 112.469 148.945C113.031 148.576 113.674 148.391 114.398 148.391C115.539 148.391 116.406 148.729 117 149.406C117.599 150.083 117.898 151.013 117.898 152.195V153.32H112.711L112.695 153.359C112.727 154.026 112.919 154.576 113.273 155.008C113.628 155.435 114.133 155.648 114.789 155.648C115.247 155.648 115.664 155.586 116.039 155.461C116.414 155.336 116.763 155.159 117.086 154.93L117.695 156.164C117.362 156.451 116.938 156.69 116.422 156.883C115.911 157.07 115.31 157.164 114.617 157.164ZM112.742 151.938H116.016V151.734C116.016 151.182 115.885 150.734 115.625 150.391C115.37 150.047 114.969 149.875 114.422 149.875C113.943 149.875 113.555 150.068 113.258 150.453C112.966 150.839 112.786 151.32 112.719 151.898L112.742 151.938ZM118.906 157V155.797L120.086 155.562V146.258L118.836 146.023V144.812H122.055V155.562L123.227 155.797V157H118.906ZM124.016 157V155.797L125.195 155.562V146.258L123.945 146.023V144.812H127.164V155.562L128.336 155.797V157H124.016Z" fill="#222222"/>
</svg>
