<svg width="107" height="17" viewBox="0 0 107 17" fill="none" xmlns="http://www.w3.org/2000/svg">
<path d="M0.410156 16V13.8979L1.9585 13.5698V3.51074L0.410156 3.18262V1.07031H7.10596V3.18262L5.55762 3.51074V7.28418H10.9922V3.51074L9.44385 3.18262V1.07031H16.1294V3.18262L14.5811 3.51074V13.5698L16.1294 13.8979V16H9.44385V13.8979L10.9922 13.5698V10.0425H5.55762V13.5698L7.10596 13.8979V16H0.410156ZM24.271 16.2153C23.2388 16.2153 22.2886 16.0273 21.4204 15.6514C20.5591 15.2686 19.8105 14.7354 19.1748 14.0518C18.5391 13.3682 18.0469 12.5684 17.6982 11.6523C17.3564 10.7295 17.1855 9.72803 17.1855 8.64795V8.41211C17.1855 7.33887 17.3564 6.34424 17.6982 5.42822C18.0469 4.51221 18.5356 3.7124 19.1646 3.02881C19.8003 2.34521 20.5488 1.81201 21.4102 1.4292C22.2715 1.04639 23.2183 0.85498 24.2505 0.85498C25.2622 0.85498 26.2021 1.04639 27.0703 1.4292C27.9385 1.81201 28.6973 2.34521 29.3467 3.02881C30.0029 3.7124 30.5122 4.51221 30.8745 5.42822C31.2368 6.34424 31.418 7.33887 31.418 8.41211V8.64795C31.418 9.72803 31.2368 10.7295 30.8745 11.6523C30.5122 12.5684 30.0063 13.3682 29.3569 14.0518C28.7075 14.7354 27.9487 15.2686 27.0806 15.6514C26.2124 16.0273 25.2759 16.2153 24.271 16.2153ZM24.271 13.4878C25.3989 13.4878 26.2739 13.0469 26.896 12.165C27.5249 11.2764 27.8394 10.104 27.8394 8.64795V8.3916C27.8394 6.96289 27.5249 5.80762 26.896 4.92578C26.2671 4.03711 25.3853 3.59277 24.2505 3.59277C23.0542 3.59277 22.1758 4.03027 21.6152 4.90527C21.0615 5.78027 20.7847 6.94238 20.7847 8.3916V8.64795C20.7847 10.1108 21.0684 11.2832 21.6357 12.165C22.2031 13.0469 23.0815 13.4878 24.271 13.4878ZM32.4023 16V13.8979L33.9507 13.5698V3.51074L32.4023 3.18262V1.07031H39.4365V3.18262L37.5498 3.51074V13.2417H41.0977L41.1797 11.1602H43.9277V16H32.4023ZM44.6455 16V13.8979L46.1938 13.5698V3.51074L44.6455 3.18262V1.07031H51.3311V3.18262L49.7827 3.51074V13.5698L51.3311 13.8979V16H44.6455Z" fill="#EBAFA6"/>
<path d="M52.1514 16V13.8979L53.7202 13.5186V3.57227L52.1514 3.18262V1.07031H59.1445C60.4912 1.07031 61.6841 1.38477 62.7231 2.01367C63.7622 2.63574 64.5757 3.50049 65.1636 4.60791C65.7515 5.7085 66.0454 6.97998 66.0454 8.42236V8.6582C66.0454 10.1006 65.7515 11.3755 65.1636 12.4829C64.5757 13.5835 63.7622 14.4448 62.7231 15.0669C61.6841 15.689 60.4912 16 59.1445 16H52.1514ZM57.3193 13.2725H58.96C60.0947 13.2725 60.9561 12.8521 61.5439 12.0112C62.1318 11.1636 62.4258 10.0459 62.4258 8.6582V8.41211C62.4258 7.03125 62.1318 5.92041 61.5439 5.07959C60.9561 4.23193 60.0947 3.80811 58.96 3.80811H57.3193V13.2725ZM66.4966 16V13.8979L67.5425 13.7441L71.9927 1.07031H75.8892L80.3496 13.7441L81.3955 13.8979V16H75.8174V13.8979L76.7915 13.7134L76.3403 12.0933H71.5415L71.1108 13.7134L72.085 13.8979V16H66.4966ZM72.3003 9.5708H75.5713L74.1152 5.04883L73.9512 4.52588H73.8896L73.7153 5.1001L72.3003 9.5708ZM82.2979 16V13.7544L89.2808 3.82861H85.5176L85.251 5.72559H82.5542L82.749 1.07031H93.8027V3.23389L86.7993 13.252H91.2803L91.5674 11.478H94.2539L93.9565 16H82.2979ZM94.8076 16V13.8979L96.356 13.5698V3.51074L94.8076 3.18262V1.07031H106.733V5.37695H104.016L103.934 3.83887H99.9551V6.90479H104.723V9.66309H99.9551V13.2212H104.128L104.21 11.6113H106.897V16H94.8076Z" fill="#F5F5F5"/>
</svg>
