<svg width="363" height="363" viewBox="0 0 363 363" fill="none" xmlns="http://www.w3.org/2000/svg">
<circle cx="181.5" cy="181.5" r="181.5" fill="#8B6886" fill-opacity="0.07"/>
<path d="M233 173.37V179.519C233 179.716 232.983 179.913 232.948 180.105L231.376 188.815C231.168 189.972 230.376 190.79 229.464 190.79H219.25C218.94 190.79 218.635 190.695 218.359 190.511C218.083 190.328 217.844 190.062 217.661 189.735L211.376 178.464C210.738 177.319 210.932 175.717 211.809 174.885C212.686 174.053 213.915 174.306 214.553 175.45L216.107 178.237V160.562C216.107 159.147 216.987 158 218.071 158C219.156 158 220.036 159.147 220.036 160.562V173.37H220.429V170.809C220.429 169.394 221.308 168.247 222.393 168.247C223.478 168.247 224.357 169.394 224.357 170.809V173.37H224.75V171.833C224.75 170.419 225.629 169.272 226.714 169.272C227.799 169.272 228.679 170.419 228.679 171.833V173.37H229.071C229.071 171.956 229.951 170.809 231.036 170.809C232.121 170.809 233 171.956 233 173.37ZM220.429 178.494H220.036V184.642H220.429V178.494ZM224.75 178.494H224.357V184.642H224.75V178.494ZM229.071 178.494H228.679V184.642H229.071V178.494Z" fill="#222222"/>
<path d="M139.516 258V256.797L140.758 256.562V248.07L139.516 247.836V246.625H144.508C145.784 246.625 146.779 246.885 147.492 247.406C148.211 247.922 148.57 248.695 148.57 249.727C148.57 250.242 148.422 250.706 148.125 251.117C147.833 251.523 147.422 251.826 146.891 252.023C147.573 252.169 148.096 252.492 148.461 252.992C148.826 253.492 149.008 254.07 149.008 254.727C149.008 255.799 148.656 256.615 147.953 257.172C147.255 257.724 146.281 258 145.031 258H139.516ZM142.727 251.422H144.727C145.31 251.422 145.768 251.281 146.102 251C146.435 250.719 146.602 250.326 146.602 249.82C146.602 248.706 145.904 248.148 144.508 248.148H142.727V251.422ZM142.727 256.484H145.031C145.677 256.484 146.172 256.336 146.516 256.039C146.865 255.737 147.039 255.302 147.039 254.734C147.039 254.13 146.891 253.664 146.594 253.336C146.302 253.003 145.846 252.836 145.227 252.836H142.727V256.484ZM153.906 258.164C153.094 258.164 152.396 257.982 151.812 257.617C151.229 257.247 150.781 256.74 150.469 256.094C150.156 255.448 150 254.703 150 253.859V253.695C150 252.857 150.156 252.115 150.469 251.469C150.781 250.823 151.229 250.315 151.812 249.945C152.396 249.576 153.089 249.391 153.891 249.391C154.703 249.391 155.401 249.576 155.984 249.945C156.568 250.31 157.016 250.818 157.328 251.469C157.641 252.115 157.797 252.857 157.797 253.695V253.859C157.797 254.708 157.641 255.456 157.328 256.102C157.016 256.747 156.568 257.253 155.984 257.617C155.406 257.982 154.714 258.164 153.906 258.164ZM153.906 256.648C154.557 256.648 155.042 256.391 155.359 255.875C155.677 255.354 155.836 254.682 155.836 253.859V253.695C155.836 252.888 155.674 252.224 155.352 251.703C155.034 251.177 154.547 250.914 153.891 250.914C153.24 250.914 152.755 251.177 152.438 251.703C152.125 252.224 151.969 252.888 151.969 253.695V253.859C151.969 254.682 152.125 255.354 152.438 255.875C152.755 256.391 153.245 256.648 153.906 256.648ZM163 258.164C162.188 258.164 161.49 257.982 160.906 257.617C160.323 257.247 159.875 256.74 159.562 256.094C159.25 255.448 159.094 254.703 159.094 253.859V253.695C159.094 252.857 159.25 252.115 159.562 251.469C159.875 250.823 160.323 250.315 160.906 249.945C161.49 249.576 162.182 249.391 162.984 249.391C163.797 249.391 164.495 249.576 165.078 249.945C165.661 250.31 166.109 250.818 166.422 251.469C166.734 252.115 166.891 252.857 166.891 253.695V253.859C166.891 254.708 166.734 255.456 166.422 256.102C166.109 256.747 165.661 257.253 165.078 257.617C164.5 257.982 163.807 258.164 163 258.164ZM163 256.648C163.651 256.648 164.135 256.391 164.453 255.875C164.771 255.354 164.93 254.682 164.93 253.859V253.695C164.93 252.888 164.768 252.224 164.445 251.703C164.128 251.177 163.641 250.914 162.984 250.914C162.333 250.914 161.849 251.177 161.531 251.703C161.219 252.224 161.062 252.888 161.062 253.695V253.859C161.062 254.682 161.219 255.354 161.531 255.875C161.849 256.391 162.339 256.648 163 256.648ZM167.719 258V256.797L168.898 256.562V247.258L167.648 247.023V245.812H170.859V253.383L173.469 250.898L173.492 250.867L172.609 250.75V249.547H176.688V250.758L175.602 251.008L173.367 253.102L176.055 256.57L177.18 256.797V258H173.117V256.836L173.859 256.703L173.836 256.672L172.062 254.328L170.859 255.461V256.562L171.961 256.797V258H167.719ZM182.062 258V256.797L183.227 256.562V250.992L181.992 250.758V249.547H185.039L185.141 250.609L185.156 250.781C185.609 249.854 186.266 249.391 187.125 249.391C187.448 249.391 187.737 249.432 187.992 249.516L187.766 251.336L186.664 251.273C186.305 251.253 186.008 251.323 185.773 251.484C185.539 251.646 185.346 251.87 185.195 252.156V256.562L186.367 256.797V258H182.062ZM192.578 258.164C191.766 258.164 191.068 257.982 190.484 257.617C189.901 257.247 189.453 256.74 189.141 256.094C188.828 255.448 188.672 254.703 188.672 253.859V253.695C188.672 252.857 188.828 252.115 189.141 251.469C189.453 250.823 189.901 250.315 190.484 249.945C191.068 249.576 191.76 249.391 192.562 249.391C193.375 249.391 194.073 249.576 194.656 249.945C195.24 250.31 195.688 250.818 196 251.469C196.312 252.115 196.469 252.857 196.469 253.695V253.859C196.469 254.708 196.312 255.456 196 256.102C195.688 256.747 195.24 257.253 194.656 257.617C194.078 257.982 193.385 258.164 192.578 258.164ZM192.578 256.648C193.229 256.648 193.714 256.391 194.031 255.875C194.349 255.354 194.508 254.682 194.508 253.859V253.695C194.508 252.888 194.346 252.224 194.023 251.703C193.706 251.177 193.219 250.914 192.562 250.914C191.911 250.914 191.427 251.177 191.109 251.703C190.797 252.224 190.641 252.888 190.641 253.695V253.859C190.641 254.682 190.797 255.354 191.109 255.875C191.427 256.391 191.917 256.648 192.578 256.648ZM201.672 258.164C200.859 258.164 200.161 257.982 199.578 257.617C198.995 257.247 198.547 256.74 198.234 256.094C197.922 255.448 197.766 254.703 197.766 253.859V253.695C197.766 252.857 197.922 252.115 198.234 251.469C198.547 250.823 198.995 250.315 199.578 249.945C200.161 249.576 200.854 249.391 201.656 249.391C202.469 249.391 203.167 249.576 203.75 249.945C204.333 250.31 204.781 250.818 205.094 251.469C205.406 252.115 205.562 252.857 205.562 253.695V253.859C205.562 254.708 205.406 255.456 205.094 256.102C204.781 256.747 204.333 257.253 203.75 257.617C203.172 257.982 202.479 258.164 201.672 258.164ZM201.672 256.648C202.323 256.648 202.807 256.391 203.125 255.875C203.443 255.354 203.602 254.682 203.602 253.859V253.695C203.602 252.888 203.44 252.224 203.117 251.703C202.799 251.177 202.312 250.914 201.656 250.914C201.005 250.914 200.521 251.177 200.203 251.703C199.891 252.224 199.734 252.888 199.734 253.695V253.859C199.734 254.682 199.891 255.354 200.203 255.875C200.521 256.391 201.01 256.648 201.672 256.648ZM206.602 258V256.797L207.781 256.562V250.992L206.539 250.758V249.547H209.586L209.68 250.656C209.951 250.255 210.294 249.945 210.711 249.727C211.128 249.503 211.609 249.391 212.156 249.391C212.708 249.391 213.18 249.516 213.57 249.766C213.966 250.01 214.266 250.383 214.469 250.883C214.729 250.419 215.07 250.055 215.492 249.789C215.919 249.523 216.419 249.391 216.992 249.391C217.836 249.391 218.503 249.68 218.992 250.258C219.482 250.836 219.727 251.711 219.727 252.883V256.562L220.906 256.797V258H216.648V256.797L217.758 256.562V252.867C217.758 252.159 217.638 251.661 217.398 251.375C217.159 251.089 216.807 250.945 216.344 250.945C215.911 250.945 215.555 251.083 215.273 251.359C214.997 251.63 214.818 251.982 214.734 252.414V256.562L215.805 256.797V258H211.703V256.797L212.773 256.562V252.867C212.773 252.185 212.651 251.695 212.406 251.398C212.161 251.096 211.807 250.945 211.344 250.945C210.958 250.945 210.633 251.023 210.367 251.18C210.107 251.336 209.898 251.557 209.742 251.844V256.562L210.852 256.797V258H206.602Z" fill="#222222"/>
<rect x="131" y="130" width="92" height="35" fill="#EBAFA6"/>
<path d="M164.554 154V153.139L165.668 152.947V145.106L164.554 144.915V144.047H168.847C169.886 144.047 170.697 144.272 171.28 144.724C171.868 145.17 172.162 145.842 172.162 146.74C172.162 147.182 172.021 147.579 171.738 147.93C171.46 148.276 171.091 148.534 170.631 148.702C171.228 148.83 171.7 149.124 172.046 149.584C172.392 150.044 172.565 150.58 172.565 151.19C172.565 152.102 172.269 152.799 171.677 153.282C171.084 153.761 170.282 154 169.271 154H164.554ZM167.015 148.278H169.195C169.678 148.278 170.068 148.139 170.364 147.861C170.665 147.579 170.815 147.196 170.815 146.713C170.815 146.175 170.647 145.774 170.31 145.51C169.972 145.241 169.485 145.106 168.847 145.106H167.015V148.278ZM167.015 152.947H169.271C169.886 152.947 170.362 152.797 170.699 152.496C171.041 152.191 171.212 151.76 171.212 151.204C171.212 150.621 171.068 150.163 170.781 149.83C170.499 149.497 170.063 149.331 169.476 149.331H167.015V152.947ZM176.886 154.144C176.202 154.144 175.612 153.984 175.115 153.665C174.623 153.341 174.243 152.897 173.974 152.332C173.705 151.762 173.57 151.113 173.57 150.384V150.233C173.57 149.504 173.705 148.857 173.974 148.292C174.243 147.722 174.623 147.276 175.115 146.952C175.612 146.629 176.198 146.467 176.872 146.467C177.556 146.467 178.144 146.629 178.636 146.952C179.132 147.276 179.515 147.72 179.784 148.285C180.053 148.85 180.188 149.5 180.188 150.233V150.384C180.188 151.118 180.053 151.769 179.784 152.339C179.515 152.904 179.135 153.346 178.643 153.665C178.15 153.984 177.565 154.144 176.886 154.144ZM176.886 153.091C177.524 153.091 178.009 152.836 178.342 152.325C178.674 151.815 178.841 151.168 178.841 150.384V150.233C178.841 149.714 178.766 149.251 178.615 148.846C178.469 148.436 178.251 148.114 177.959 147.882C177.667 147.645 177.305 147.526 176.872 147.526C176.444 147.526 176.084 147.645 175.792 147.882C175.5 148.114 175.282 148.436 175.136 148.846C174.99 149.251 174.917 149.714 174.917 150.233V150.384C174.917 151.168 175.081 151.815 175.409 152.325C175.742 152.836 176.234 153.091 176.886 153.091ZM184.815 154.144C184.132 154.144 183.542 153.984 183.045 153.665C182.553 153.341 182.172 152.897 181.903 152.332C181.634 151.762 181.5 151.113 181.5 150.384V150.233C181.5 149.504 181.634 148.857 181.903 148.292C182.172 147.722 182.553 147.276 183.045 146.952C183.542 146.629 184.127 146.467 184.802 146.467C185.485 146.467 186.073 146.629 186.565 146.952C187.062 147.276 187.445 147.72 187.714 148.285C187.983 148.85 188.117 149.5 188.117 150.233V150.384C188.117 151.118 187.983 151.769 187.714 152.339C187.445 152.904 187.064 153.346 186.572 153.665C186.08 153.984 185.494 154.144 184.815 154.144ZM184.815 153.091C185.453 153.091 185.939 152.836 186.271 152.325C186.604 151.815 186.771 151.168 186.771 150.384V150.233C186.771 149.714 186.695 149.251 186.545 148.846C186.399 148.436 186.18 148.114 185.889 147.882C185.597 147.645 185.235 147.526 184.802 147.526C184.373 147.526 184.013 147.645 183.722 147.882C183.43 148.114 183.211 148.436 183.065 148.846C182.92 149.251 182.847 149.714 182.847 150.233V150.384C182.847 151.168 183.011 151.815 183.339 152.325C183.672 152.836 184.164 153.091 184.815 153.091ZM188.951 154V153.139L190.065 152.947V144.396L188.951 144.204V143.336H191.412V150.206L194.03 147.602L194.064 147.561L193.271 147.472V146.604H196.457V147.472L195.507 147.649L193.429 149.741L195.979 152.975L197.045 153.139V154H193.702V153.139L194.454 153.05L194.434 153.022L192.561 150.609L191.412 151.765V152.947L192.526 153.139V154H188.951Z" fill="white"/>
</svg>
