<svg width="363" height="363" viewBox="0 0 363 363" fill="none" xmlns="http://www.w3.org/2000/svg">
<circle cx="181.5" cy="181.5" r="181.5" fill="#8B6886" fill-opacity="0.07"/>
<path d="M123.516 258V256.797L124.766 256.555V248.086L123.516 247.836V246.625H128.281C129.292 246.625 130.18 246.865 130.945 247.344C131.711 247.823 132.307 248.482 132.734 249.32C133.161 250.159 133.375 251.12 133.375 252.203V252.43C133.375 253.497 133.164 254.453 132.742 255.297C132.326 256.135 131.74 256.797 130.984 257.281C130.229 257.76 129.346 258 128.336 258H123.516ZM126.734 256.484H128.234C128.901 256.484 129.469 256.307 129.938 255.953C130.411 255.594 130.773 255.109 131.023 254.5C131.273 253.885 131.398 253.195 131.398 252.43V252.195C131.398 251.414 131.273 250.719 131.023 250.109C130.773 249.5 130.411 249.021 129.938 248.672C129.469 248.323 128.901 248.148 128.234 248.148H126.734V256.484ZM138.414 258.164C137.612 258.164 136.917 257.987 136.328 257.633C135.74 257.273 135.281 256.779 134.953 256.148C134.63 255.518 134.469 254.797 134.469 253.984V253.656C134.469 252.833 134.628 252.102 134.945 251.461C135.268 250.815 135.708 250.31 136.266 249.945C136.828 249.576 137.471 249.391 138.195 249.391C139.336 249.391 140.203 249.729 140.797 250.406C141.396 251.083 141.695 252.013 141.695 253.195V254.32H136.508L136.492 254.359C136.523 255.026 136.716 255.576 137.07 256.008C137.424 256.435 137.93 256.648 138.586 256.648C139.044 256.648 139.461 256.586 139.836 256.461C140.211 256.336 140.56 256.159 140.883 255.93L141.492 257.164C141.159 257.451 140.734 257.69 140.219 257.883C139.708 258.07 139.107 258.164 138.414 258.164ZM136.539 252.938H139.812V252.734C139.812 252.182 139.682 251.734 139.422 251.391C139.167 251.047 138.766 250.875 138.219 250.875C137.74 250.875 137.352 251.068 137.055 251.453C136.763 251.839 136.583 252.32 136.516 252.898L136.539 252.938ZM145.992 258.148C145.273 258.148 144.714 257.948 144.312 257.547C143.911 257.141 143.711 256.495 143.711 255.609V250.953H142.477V249.547H143.711V247.492H145.672V249.547H147.344V250.953H145.672V255.609C145.672 255.969 145.745 256.229 145.891 256.391C146.042 256.552 146.245 256.633 146.5 256.633C146.646 256.633 146.807 256.622 146.984 256.602C147.167 256.576 147.315 256.549 147.43 256.523L147.625 257.906C147.401 257.974 147.141 258.031 146.844 258.078C146.547 258.125 146.263 258.148 145.992 258.148ZM151.336 258.164C150.477 258.164 149.807 257.943 149.328 257.5C148.849 257.057 148.609 256.448 148.609 255.672C148.609 254.875 148.932 254.229 149.578 253.734C150.229 253.24 151.161 252.992 152.375 252.992H153.664V252.281C153.664 251.833 153.529 251.477 153.258 251.211C152.992 250.945 152.604 250.812 152.094 250.812C151.802 250.812 151.544 250.849 151.32 250.922C151.096 250.99 150.896 251.089 150.719 251.219L150.547 252.359H149.094L149.078 250.273C149.49 249.997 149.951 249.781 150.461 249.625C150.977 249.469 151.547 249.391 152.172 249.391C153.245 249.391 154.089 249.643 154.703 250.148C155.323 250.654 155.633 251.372 155.633 252.305V256.031C155.633 256.146 155.633 256.258 155.633 256.367C155.638 256.471 155.646 256.578 155.656 256.688L156.516 256.797V258H153.945C153.893 257.818 153.844 257.641 153.797 257.469C153.755 257.297 153.724 257.125 153.703 256.953C153.422 257.307 153.081 257.599 152.68 257.828C152.279 258.052 151.831 258.164 151.336 258.164ZM151.781 256.641C152.182 256.641 152.552 256.549 152.891 256.367C153.234 256.18 153.492 255.945 153.664 255.664V254.25H152.352C151.763 254.25 151.318 254.388 151.016 254.664C150.719 254.935 150.57 255.253 150.57 255.617C150.57 256.299 150.974 256.641 151.781 256.641ZM157.438 258V256.797L158.609 256.562V250.992L157.367 250.758V249.547H160.578V256.562L161.742 256.797V258H157.438ZM158.531 247.633V245.812H160.578V247.633H158.531ZM162.531 258V256.797L163.711 256.562V247.258L162.461 247.023V245.812H165.68V256.562L166.852 256.797V258H162.531ZM171.289 258.164C170.685 258.164 170.12 258.107 169.594 257.992C169.073 257.872 168.549 257.698 168.023 257.469L168 255.234H169.414L169.711 256.453C169.94 256.557 170.172 256.635 170.406 256.688C170.641 256.74 170.904 256.766 171.195 256.766C171.758 256.766 172.154 256.667 172.383 256.469C172.617 256.271 172.734 256.026 172.734 255.734C172.734 255.458 172.612 255.219 172.367 255.016C172.128 254.812 171.667 254.638 170.984 254.492C169.969 254.273 169.224 253.956 168.75 253.539C168.276 253.117 168.039 252.57 168.039 251.898C168.039 251.44 168.161 251.021 168.406 250.641C168.656 250.26 169.021 249.958 169.5 249.734C169.984 249.51 170.578 249.398 171.281 249.398C171.922 249.398 172.49 249.466 172.984 249.602C173.484 249.732 173.909 249.906 174.258 250.125L174.312 252.273H172.906L172.664 251.156C172.326 250.917 171.893 250.797 171.367 250.797C170.935 250.797 170.594 250.893 170.344 251.086C170.094 251.273 169.969 251.51 169.969 251.797C169.969 252.047 170.068 252.263 170.266 252.445C170.464 252.628 170.901 252.794 171.578 252.945C172.677 253.201 173.464 253.534 173.938 253.945C174.411 254.357 174.648 254.901 174.648 255.578C174.648 256.333 174.372 256.953 173.82 257.438C173.268 257.922 172.424 258.164 171.289 258.164ZM183.688 258.164C182.875 258.164 182.177 257.982 181.594 257.617C181.01 257.247 180.562 256.74 180.25 256.094C179.938 255.448 179.781 254.703 179.781 253.859V253.695C179.781 252.857 179.938 252.115 180.25 251.469C180.562 250.823 181.01 250.315 181.594 249.945C182.177 249.576 182.87 249.391 183.672 249.391C184.484 249.391 185.182 249.576 185.766 249.945C186.349 250.31 186.797 250.818 187.109 251.469C187.422 252.115 187.578 252.857 187.578 253.695V253.859C187.578 254.708 187.422 255.456 187.109 256.102C186.797 256.747 186.349 257.253 185.766 257.617C185.188 257.982 184.495 258.164 183.688 258.164ZM183.688 256.648C184.339 256.648 184.823 256.391 185.141 255.875C185.458 255.354 185.617 254.682 185.617 253.859V253.695C185.617 252.888 185.456 252.224 185.133 251.703C184.815 251.177 184.328 250.914 183.672 250.914C183.021 250.914 182.536 251.177 182.219 251.703C181.906 252.224 181.75 252.888 181.75 253.695V253.859C181.75 254.682 181.906 255.354 182.219 255.875C182.536 256.391 183.026 256.648 183.688 256.648ZM188.617 258V256.797L189.789 256.562V250.992L188.555 250.758V249.547H191.602L191.703 250.773C191.984 250.336 192.333 249.997 192.75 249.758C193.172 249.513 193.648 249.391 194.18 249.391C195.049 249.391 195.727 249.659 196.211 250.195C196.695 250.732 196.938 251.565 196.938 252.695V256.562L198.109 256.797V258H193.867V256.797L194.969 256.562V252.711C194.969 252.07 194.841 251.617 194.586 251.352C194.331 251.081 193.951 250.945 193.445 250.945C193.07 250.945 192.74 251.031 192.453 251.203C192.167 251.37 191.935 251.604 191.758 251.906V256.562L192.828 256.797V258H188.617ZM202.898 258V256.797L204.078 256.562V250.992L202.836 250.758V249.547H205.883L205.977 250.656C206.247 250.255 206.591 249.945 207.008 249.727C207.424 249.503 207.906 249.391 208.453 249.391C209.005 249.391 209.477 249.516 209.867 249.766C210.263 250.01 210.562 250.383 210.766 250.883C211.026 250.419 211.367 250.055 211.789 249.789C212.216 249.523 212.716 249.391 213.289 249.391C214.133 249.391 214.799 249.68 215.289 250.258C215.779 250.836 216.023 251.711 216.023 252.883V256.562L217.203 256.797V258H212.945V256.797L214.055 256.562V252.867C214.055 252.159 213.935 251.661 213.695 251.375C213.456 251.089 213.104 250.945 212.641 250.945C212.208 250.945 211.852 251.083 211.57 251.359C211.294 251.63 211.115 251.982 211.031 252.414V256.562L212.102 256.797V258H208V256.797L209.07 256.562V252.867C209.07 252.185 208.948 251.695 208.703 251.398C208.458 251.096 208.104 250.945 207.641 250.945C207.255 250.945 206.93 251.023 206.664 251.18C206.404 251.336 206.195 251.557 206.039 251.844V256.562L207.148 256.797V258H202.898ZM220.914 258.164C220.055 258.164 219.385 257.943 218.906 257.5C218.427 257.057 218.188 256.448 218.188 255.672C218.188 254.875 218.51 254.229 219.156 253.734C219.807 253.24 220.74 252.992 221.953 252.992H223.242V252.281C223.242 251.833 223.107 251.477 222.836 251.211C222.57 250.945 222.182 250.812 221.672 250.812C221.38 250.812 221.122 250.849 220.898 250.922C220.674 250.99 220.474 251.089 220.297 251.219L220.125 252.359H218.672L218.656 250.273C219.068 249.997 219.529 249.781 220.039 249.625C220.555 249.469 221.125 249.391 221.75 249.391C222.823 249.391 223.667 249.643 224.281 250.148C224.901 250.654 225.211 251.372 225.211 252.305V256.031C225.211 256.146 225.211 256.258 225.211 256.367C225.216 256.471 225.224 256.578 225.234 256.688L226.094 256.797V258H223.523C223.471 257.818 223.422 257.641 223.375 257.469C223.333 257.297 223.302 257.125 223.281 256.953C223 257.307 222.659 257.599 222.258 257.828C221.857 258.052 221.409 258.164 220.914 258.164ZM221.359 256.641C221.76 256.641 222.13 256.549 222.469 256.367C222.812 256.18 223.07 255.945 223.242 255.664V254.25H221.93C221.341 254.25 220.896 254.388 220.594 254.664C220.297 254.935 220.148 255.253 220.148 255.617C220.148 256.299 220.552 256.641 221.359 256.641ZM227.016 258V256.797L228.188 256.562V250.992L226.945 250.758V249.547H230.156V256.562L231.32 256.797V258H227.016ZM228.109 247.633V245.812H230.156V247.633H228.109ZM232.109 258V256.797L233.289 256.562V247.258L232.039 247.023V245.812H235.258V256.562L236.43 256.797V258H232.109Z" fill="#222222"/>
<path d="M165.278 178.75C162.033 178.75 158.789 175.862 157.167 174.625C149.056 168.85 146.622 166.788 145 165.55V182.875C145 185.153 146.816 187 149.056 187H181.5C183.739 187 185.556 185.153 185.556 182.875V165.55C183.933 166.788 181.5 168.85 173.389 174.625C171.767 175.862 168.522 178.75 165.278 178.75ZM181.5 154H149.056C146.816 154 145 155.847 145 158.125V160.188C148.244 162.663 147.839 162.662 159.6 171.325C160.817 172.15 163.25 174.625 165.278 174.625C167.306 174.625 169.739 172.15 170.956 171.738C182.717 163.075 182.311 163.075 185.556 160.6V158.125C185.556 155.847 183.739 154 181.5 154ZM213.944 141.625H173.389C171.149 141.625 169.333 143.472 169.333 145.75V149.875H181.5C185.709 149.875 189.179 153.152 189.574 157.328L189.611 157.3V174.625H213.944C216.184 174.625 218 172.778 218 170.5V145.75C218 143.472 216.184 141.625 213.944 141.625ZM209.889 158.125H201.778V149.875H209.889V158.125ZM165.278 145.75C165.278 141.201 168.916 137.5 173.389 137.5H201.778V125.125C201.778 122.847 199.962 121 197.722 121H157.167C154.927 121 153.111 122.847 153.111 125.125V149.875H165.278V145.75Z" fill="#F1ADA4"/>
</svg>
